<svg width="50" height="48" viewBox="0 0 50 48" fill="none" xmlns="http://www.w3.org/2000/svg">
<path d="M36.0247 23.6362H36.1147C36.6147 23.8962 36.8647 24.1862 36.8647 24.5062L36.1147 30.2062C36.1147 32.2862 36.7347 36.5962 37.9747 43.1362L39.4747 46.8862C39.4747 47.1462 39.2647 47.4362 38.8447 47.7562H38.2747C37.8747 47.6362 37.2747 46.4062 36.4747 44.0662C35.9547 42.1862 35.4347 39.2862 34.9147 35.3662H34.7347C33.5747 38.8062 32.7547 40.5862 32.2747 40.7062L31.7947 40.8262C31.3747 40.8262 30.8547 40.0062 30.2347 38.3662H30.0247C29.7847 43.3062 29.3147 45.7762 28.6147 45.7762H28.5247C27.8847 45.7762 27.5347 45.2762 27.4747 44.2762C27.9747 42.3562 28.2247 40.3562 28.2247 38.2762L27.4147 30.3262V29.7562C27.4147 28.9962 27.6847 28.6162 28.2247 28.6162C29.0047 28.6162 29.6947 30.1462 30.2947 33.2062C31.1747 35.9862 31.7147 37.4862 31.9147 37.7062C32.3747 36.9862 32.8347 35.7062 33.2947 33.8662C33.6547 32.9262 34.0047 31.4562 34.3447 29.4562L34.2247 29.3662L34.3447 28.8862V28.7062C34.5247 25.3262 35.0847 23.6362 36.0247 23.6362Z" fill="white"/>
<path d="M16.7146 1.24392L25.7146 0.673919C25.9746 0.673919 26.2246 0.923919 26.4646 1.42392C26.4646 2.18392 25.5846 2.56392 23.8246 2.56392L18.5746 2.86392L18.4546 2.92392C18.9546 6.18392 19.2046 12.3739 19.2046 21.4939C19.1046 22.3739 18.7846 22.8139 18.2446 22.8139C17.7246 22.8139 17.4246 22.4139 17.3446 21.6139V14.6539C17.3446 10.0139 17.1346 6.14392 16.7146 3.04392C13.1346 3.38392 11.3446 3.78392 11.3446 4.24392L11.0746 4.36392C10.4546 4.18392 10.1446 3.86392 10.1446 3.40392C10.1446 2.30392 12.3346 1.58392 16.7146 1.24392Z" fill="white"/>
</svg>
